<?xml version="1.0" standalone="no"?>
<!DOCTYPE svg PUBLIC "-//W3C//DTD SVG 20010904//EN"
 "http://www.w3.org/TR/2001/REC-SVG-20010904/DTD/svg10.dtd">
<svg version="1.0" xmlns="http://www.w3.org/2000/svg"
 width="513.000000pt" height="513.000000pt" viewBox="0 0 513.000000 513.000000"
 preserveAspectRatio="xMidYMid meet">
<metadata>
Created by potrace 1.14, written by Peter Selinger 2001-2017
</metadata>
<g transform="translate(0.000000,513.000000) scale(0.100000,-0.100000)"
fill="#000000" stroke="none">
<path d="M147 5116 c-52 -16 -91 -50 -117 -104 l-24 -47 0 -2400 0 -2401 25
-44 c13 -24 44 -58 67 -75 l44 -30 2401 -3 c1684 -2 2413 0 2439 8 49 14 94
53 120 104 l21 41 0 2395 c1 1883 -2 2403 -12 2432 -15 45 -54 88 -101 114
-34 18 -105 19 -2431 19 -1649 1 -2408 -2 -2432 -9z"/>
</g>
</svg>
